<svg width="18" height="15" viewBox="0 0 18 15" fill="none" xmlns="http://www.w3.org/2000/svg">
<path fill-rule="evenodd" clip-rule="evenodd" d="M17.726 3.66288L17.7273 3.66348L15.2524 9.1632H15.2522C15.1301 9.4344 14.8661 9.62753 14.5548 9.64779L7.42723 10.1228L7.83898 11.2994H15.6C16.5112 11.2994 17.2499 12.0385 17.2499 12.9499C17.2499 13.8612 16.5112 14.5997 15.6 14.5997C14.6887 14.5997 13.9499 13.8612 13.9499 12.9499H6.24998C6.24998 13.8612 5.51126 14.5997 4.59997 14.5997C3.68867 14.5997 2.94997 13.8612 2.94997 12.9499C2.94997 12.0385 3.68867 11.2994 4.59997 11.2994H6.09091L2.9147 2.22462H1.02496C0.569358 2.22462 0.199944 1.85508 0.199944 1.3997C0.199944 0.94431 0.569358 0.57477 1.02496 0.57477H3.49996C3.85988 0.57477 4.16291 0.806625 4.27552 1.12849L4.27862 1.12731L4.75904 2.50001H16.9749C17.4306 2.50001 17.7999 2.86894 17.7999 3.32493C17.7999 3.44533 17.7726 3.55917 17.726 3.66288ZM5.33651 4.14986L6.86167 8.50695L13.9509 8.03428L15.699 4.14986H5.33651Z" fill="white"/>
</svg>
