<svg width="13" height="26" viewBox="0 0 13 26" fill="none" xmlns="http://www.w3.org/2000/svg">
<path fill-rule="evenodd" clip-rule="evenodd" d="M12.0893 0.199004C12.0893 1.67541 12.0893 4.32006 12.0893 4.32006C12.0893 4.32006 9.05169 4.01726 8.291 5.18136C7.87513 5.81732 8.12197 7.68058 8.08512 9.0187C9.41114 9.0187 10.7884 9.0187 12.1144 9.0187C11.7736 10.5833 11.5297 11.6431 11.2793 12.9973C10.1318 12.9973 8.06257 12.9973 8.06257 12.9973V25.801C8.06257 25.801 4.26577 25.801 2.48083 25.801C2.48197 21.854 2.48004 17.2489 2.48083 13.0474C1.61372 13.0474 0.972621 13.0474 0.105729 13.0474C0.105729 11.5716 0.105729 10.4957 0.105729 9.0187C0.946985 9.0187 1.61291 9.0187 2.45463 9.0187C2.57501 6.07303 2.62045 3.15479 4.08359 1.66884C5.72822 -0.00187194 7.29663 0.199004 12.0893 0.199004Z" fill="white"/>
</svg>
