<svg width="21" height="26" viewBox="0 0 21 26" fill="none" xmlns="http://www.w3.org/2000/svg">
<path fill-rule="evenodd" clip-rule="evenodd" d="M9.05075 16.8537C8.84157 17.687 8.63121 18.5602 8.41287 19.4143C8.1976 20.2559 8.00843 21.1101 7.69532 21.8838C7.17622 23.1653 6.5168 24.4033 5.65175 25.4052C5.07715 26.0722 5.19937 25.8058 5.02622 25.77C4.89426 25.7426 4.88258 25.6132 4.85673 25.4255C4.71597 24.4068 4.81188 23.2302 4.8644 22.0858C4.92391 20.7823 5.19798 19.6981 5.4525 18.615C5.93706 16.5515 6.39893 14.5279 6.88771 12.4513C6.92044 12.3131 7.00787 12.0847 6.97767 12.0061C6.7561 11.4291 6.61225 10.9111 6.54908 10.3056C6.47619 9.60996 6.53213 8.96147 6.68848 8.36246C6.9645 7.30447 7.60124 6.36688 8.58234 6.02415C9.20606 5.8078 9.89728 5.90554 10.3168 6.15649C10.7492 6.41456 11.0456 6.82287 11.1841 7.40163C11.3316 8.01733 11.2228 8.75285 11.1042 9.29347C10.8371 10.5118 10.4863 11.4267 10.1672 12.6027C10.0091 13.1863 9.8302 13.7853 9.97783 14.4147C10.1137 14.9929 10.4147 15.391 10.8253 15.6896C11.2507 15.9996 11.7545 16.1695 12.4499 16.145C13.6776 16.1021 14.531 15.3171 15.1015 14.5768C16.0136 13.3925 16.5663 11.7933 16.776 9.89071C16.8435 9.27737 16.8931 8.57225 16.8457 7.87667C16.7585 6.59279 16.3567 5.56044 15.7193 4.75995C15.1129 3.9976 14.253 3.39082 13.2075 3.04928C12.1704 2.71073 10.7348 2.59808 9.45953 2.81624C7.14246 3.21321 5.5079 4.53047 4.54532 6.34899C4.04099 7.30088 3.70808 8.39641 3.70808 9.759C3.70808 10.8098 3.9674 11.624 4.38604 12.2588C4.51867 12.4603 4.71414 12.626 4.84449 12.856C5.02908 13.1821 4.81599 13.6673 4.72466 14.0201C4.61492 14.4451 4.60324 15.0322 4.1068 15.0424C3.90148 15.0459 3.64321 14.8957 3.46878 14.7991C2.16428 14.0779 1.37155 12.7661 1.04664 11.0649C0.84924 10.0314 0.849576 8.82557 1.04664 7.8266C1.23707 6.86041 1.59151 5.96872 1.98368 5.24573C2.79793 3.74309 3.99063 2.54145 5.44255 1.68316C6.5587 1.02274 7.81801 0.560196 9.34979 0.337272C9.85826 0.262782 10.3842 0.232388 10.9548 0.205556C12.6227 0.12688 14.1394 0.504764 15.2809 1.01499C16.4861 1.55381 17.4475 2.27144 18.2611 3.16074C19.0986 4.07568 19.7086 5.14023 20.0954 6.47C20.2966 7.16201 20.4929 7.90231 20.4929 8.75703C20.4929 9.61475 20.3116 10.3699 20.1851 11.1251C19.711 13.9534 18.366 16.266 16.3474 17.5827C15.8578 17.9016 15.2656 18.196 14.593 18.3921C13.9259 18.5864 13.1651 18.7319 12.3502 18.6753C11.5586 18.621 10.9115 18.4058 10.3667 18.0983C9.82655 17.7931 9.37257 17.4194 9.05075 16.8537Z" fill="#F38181"/>
</svg>
