<svg width="26" height="22" viewBox="0 0 26 22" fill="none" xmlns="http://www.w3.org/2000/svg">
<path fill-rule="evenodd" clip-rule="evenodd" d="M17.5126 0.601062C19.547 0.564696 20.6298 1.30618 21.664 2.24853C22.5418 2.17342 23.6827 1.68289 24.3547 1.34136C24.5725 1.22274 24.7904 1.10293 25.008 0.984324C24.6243 2.02145 24.1038 2.83325 23.304 3.44958C23.1264 3.58607 22.95 3.77144 22.7275 3.85845C22.7275 3.86203 22.7275 3.86681 22.7275 3.87097C23.8672 3.85966 24.8072 3.34525 25.7 3.06632C25.7 3.07047 25.7 3.07465 25.7 3.07943C25.2311 3.82448 24.5963 4.58086 23.919 5.12327C23.6457 5.34024 23.3723 5.5572 23.0991 5.77414C23.1139 6.98115 23.0812 8.1327 22.8555 9.14718C21.5439 15.0421 18.0684 19.0445 12.5668 20.7588C10.5913 21.3745 7.39877 21.6272 5.13536 21.0651C4.01292 20.7868 2.9991 20.4721 2.04753 20.0566C1.51902 19.8253 1.02944 19.575 0.561262 19.2895C0.407472 19.1959 0.25376 19.1023 0.09997 19.0088C0.61048 19.0243 1.20775 19.1649 1.77848 19.0725C2.29481 18.9891 2.80121 19.0111 3.27753 18.9068C4.46566 18.6458 5.52058 18.3012 6.42946 17.7696C6.87006 17.5115 7.53862 17.2093 7.85174 16.8374C7.26167 16.8475 6.7269 16.7104 6.28859 16.556C4.5896 15.9564 3.60071 14.8531 2.95721 13.1961C3.47207 13.2528 4.95511 13.3868 5.302 13.0942C4.65379 13.0584 4.03055 12.6829 3.58514 12.4046C2.21837 11.5493 1.10383 10.1152 1.1122 7.90799C1.29152 7.99324 1.47095 8.07847 1.6503 8.1631C1.9936 8.30795 2.34265 8.38543 2.75226 8.47007C2.92529 8.50584 3.27111 8.60717 3.46978 8.53325C3.4612 8.53325 3.45262 8.53325 3.44414 8.53325C3.17967 8.22628 2.74893 8.02065 2.48318 7.69043C1.60636 6.60086 0.78455 4.9236 1.30445 2.92565C1.43629 2.41901 1.64536 1.97197 1.86818 1.55892C1.87665 1.56308 1.88523 1.56726 1.89381 1.57144C1.99579 1.78541 2.22352 1.94216 2.36785 2.12098C2.81564 2.6759 3.36804 3.17539 3.93099 3.61526C5.84891 5.11553 7.57617 6.037 10.3502 6.71948C11.0539 6.89293 11.8672 7.02526 12.7078 7.02645C12.4717 6.3386 12.5476 5.22639 12.7334 4.5606C13.2009 2.8875 14.2163 1.6817 15.706 1.03558C16.0622 0.880616 16.4572 0.767954 16.872 0.677358C17.0855 0.651728 17.299 0.626098 17.5126 0.601062Z" fill="#F38181"/>
</svg>
